# xmcd
#
# Track frame offsets: 
#        150
#        12104
#        41199
#        58172
#        79131
#        93618
#        111048
#        134071
#        155741
#        191466
#        219044
#        231074
#        256540
#        267605
#        288537
#        310751
#        329680
#
# Disc length: 4622 seconds
#
# Revision: 0
# Processed by: cddbd v1.5.2PL0 Copyright (c) Steve Scherf et al.
# Submitted via: ExactAudioCopy v1.3
#
DISCID=f8120c11
DTITLE=Various Artist - Slow Rock
DYEAR=1900
DGENRE=Blues
TTITLE0=Mamas and Papas - California Dreaming
TTITLE1=Eagles - Hotel California
TTITLE2=Scorpions - When The Smoke Is Coming Down
TTITLE3=Rainbow - The Temple Of The King
TTITLE4=Deep Purple - Soldier Of Fortune
TTITLE5=Nazareth - Love Hurts
TTITLE6=Scorpions - Wind Of Change
TTITLE7=Bad Company - Ready For Love
TTITLE8=Led Zeppelin - Stairway To Heaven
TTITLE9=Gary Moore - Still Got The Blues
TTITLE10=Creedence Clearwater Revival - Have you Ever Seen The Rain
TTITLE11=Bon Jovi - I Will Be There For You
TTITLE12=Bob Dylan - Knockin' On Heavens Door
TTITLE13=Damn Yankees - Where You Going Now
TTITLE14=Scorpions - Always Somewhere
TTITLE15=The Police - Every Breath You Take
TTITLE16=Deep Purple - Smoke On The Water
EXTD=
EXTT0=
EXTT1=
EXTT2=
EXTT3=
EXTT4=
EXTT5=
EXTT6=
EXTT7=
EXTT8=
EXTT9=
EXTT10=
EXTT11=
EXTT12=
EXTT13=
EXTT14=
EXTT15=
EXTT16=
PLAYORDER=
